# xmcd
#
# Track frame offsets: 
#        150
#        16325
#        36973
#        56652
#        74875
#        91962
#        108045
#        126627
#        147402
#        162890
#        179725
#        196707
#        214295
#        229397
#
# Disc length: 3226 seconds
#
# Revision: 4
# Processed by: cddbd v1.5.2PL0 Copyright (c) Steve Scherf et al.
# Submitted via: ExactAudioCopy v1.3
#
DISCID=d70c980e
DTITLE=LeAnn Rimes - The Best of Remixed
DYEAR=2004
DGENRE=Remix
TTITLE0=Can't Fight the Moonlight (Latino Mix)
TTITLE1=Soon (Graham Stack Radio Edit)
TTITLE2=I Need You (Dave Aude Radio Edit)
TTITLE3=But I Do Love You (Almighty Radio Edit)
TTITLE4=We Can (Widelife Radio Edit)
TTITLE5=Last Thing on My Mind (Metro Mix)
TTITLE6=Suddenly (Riva Radio Edit)
TTITLE7=Sittin' on Top of the World (Aurora Borealis Radio Edit)
TTITLE8=The Right Kind of Wrong (Graham Stack Radio Edit)
TTITLE9=You Are (Bertoldo Radio Edit)
TTITLE10=Tic Toc (Thunderpuss Radio Edit)
TTITLE11=How Do I Live (Mr. Mig Dance Radio Edit)
TTITLE12=Life Goes On (Peter Arnato Radio Edit)
TTITLE13=Somewhere Over the Rainbow ('A Capella' Version)
EXTD=
EXTT0=
EXTT1=
EXTT2=
EXTT3=
EXTT4=
EXTT5=
EXTT6=
EXTT7=
EXTT8=
EXTT9=
EXTT10=
EXTT11=
EXTT12=
EXTT13=
PLAYORDER=
